# xmcd
#
# Track frame offsets: 
#        150
#        20570
#        39420
#        59407
#        77229
#        90717
#        106530
#        122527
#        138478
#        154019
#        170991
#        185060
#        201824
#
# Disc length: 2891 seconds
#
# Revision: 2
# Processed by: cddbd v1.5.2PL0 Copyright (c) Steve Scherf et al.
# Submitted via: ExactAudioCopyFreeDBPlugin 1.0
#
DISCID=ae0b490d
DTITLE=George Strait - Love Is Everything
DYEAR=2013
DGENRE=Country
TTITLE0=I Got a Car
TTITLE1=Give It All We Got Tonight
TTITLE2=Blue Melodies
TTITLE3=I Just Can't Go On Dying like This
TTITLE4=I Thought I Heard My Heart Sing
TTITLE5=That's What Breaking Hearts Do
TTITLE6=When Love Comes Around Again
TTITLE7=The Night Is Young
TTITLE8=Sittin' on the Fence
TTITLE9=I Believe
TTITLE10=Love Is Everything
TTITLE11=You Don't Know What You're Missing
TTITLE12=When the Credits Roll
EXTD=
EXTT0=
EXTT1=
EXTT2=
EXTT3=
EXTT4=
EXTT5=
EXTT6=
EXTT7=
EXTT8=
EXTT9=
EXTT10=
EXTT11=
EXTT12=
PLAYORDER=
